# xmcd
# 
# Track frame offsets:
#     182
#     15967
#     31367
#     50702
#     66097
#     76150
#     89260
#     101665
#     117882
#     138052
#     152462
#     159870
#     177585
# 
# Disc length: 2688
# 
# Revision: 2
# Processed by: cddbd v1.5.2PL0 Copyright (c) Steve Scherf et al.
# Submitted via: BonkEnc v1.0.15
# 
DISCID=930a7e0d
DTITLE=Chicken Shack - 100 Ton Chicken
DYEAR=1969
DGENRE=Blues
TTITLE0=The Road Of Love
TTITLE1=Look Ma, I'm Cryin'
TTITLE2=Evelyn
TTITLE3=Reconsider Baby
TTITLE4=Weekend Love
TTITLE5=Midnight Hour
TTITLE6=Tears In The Wind
TTITLE7=Horse And Cart
TTITLE8=The Way It Is
TTITLE9=Still Worried About My Woman
TTITLE10=Anji
TTITLE11=The Things You Put Me Through
TTITLE12=Night Life
EXTD=
EXTT0=
EXTT1=
EXTT2=
EXTT3=
EXTT4=
EXTT5=
EXTT6=
EXTT7=
EXTT8=
EXTT9=
EXTT10=
EXTT11=
EXTT12=
PLAYORDER=
